<svg width="100%" height="100%" viewBox="0 0 1423 256" version="1.1" xmlns="http://www.w3.org/2000/svg" xmlns:xlink="http://www.w3.org/1999/xlink" xml:space="preserve" xmlns:serif="http://www.serif.com/" style="fill-rule:evenodd;clip-rule:evenodd;stroke-linejoin:round;stroke-miterlimit:2;">
    <g transform="matrix(1,0,0,1,-12881.5,-6693.19)">
        <g id="Page-14" serif:id="Page 14" transform="matrix(4.16667,0,0,4.16667,11839.1,5580.71)">
            <rect x="0" y="0" width="841.89" height="595.276" style="fill:none;"/>
            <g id="レイヤー-1" serif:id="レイヤー 1">
                <g transform="matrix(1,0,0,1,0,-7.072)">
                    <rect x="435.083" y="281.993" width="7.673" height="38.362" style="fill:white;"/>
                </g>
                <g transform="matrix(1,0,0,1,511.258,301.775)">
                    <path d="M0,-15.345C0,-17.428 -1.754,-19.182 -3.836,-19.182L-38.362,-19.182L-38.362,-7.672L-3.836,-7.672C-1.754,-7.672 0,-9.372 0,-11.509L0,-15.345ZM-0.548,-0.548L7.453,11.509L-1.754,11.509L-9.426,-0L-38.362,-0L-38.362,11.509L-46.035,11.509L-46.035,-26.854L-3.836,-26.854C2.521,-26.854 7.618,-21.703 7.618,-15.345L7.618,-11.509C7.618,-6.302 4.22,-1.918 -0.548,-0.548" style="fill:white;fill-rule:nonzero;"/>
                </g>
                <g transform="matrix(1,0,0,1,549.56,282.648)">
                    <path d="M0,22.908L30.635,22.908C32.827,22.908 34.526,21.21 34.526,19.127L34.526,3.782C34.526,1.699 32.827,-0.055 30.635,-0.055L0,-0.055C-2.137,-0.055 -3.836,1.699 -3.836,3.782L-3.836,19.127C-3.836,21.21 -2.137,22.908 0,22.908M30.635,30.635L0,30.635C-6.357,30.635 -11.509,25.429 -11.509,19.127L-11.509,3.782C-11.509,-2.576 -6.357,-7.727 0,-7.727L30.635,-7.727C37.047,-7.727 42.144,-2.576 42.144,3.782L42.144,19.127C42.144,25.429 37.047,30.635 30.635,30.635" style="fill:white;fill-rule:nonzero;"/>
                </g>
                <g transform="matrix(1,0,0,1,436.555,326.074)">
                    <path d="M0,-2.943L0,0C0,0.399 0.336,0.725 0.736,0.725L8.828,0.725L8.828,2.207L0.736,2.207C-0.483,2.207 -1.472,1.209 -1.472,0L-1.472,-2.943C-1.472,-4.163 -0.483,-5.15 0.736,-5.15L8.828,-5.15L8.828,-3.679L0.736,-3.679C0.336,-3.679 0,-3.342 0,-2.943" style="fill:white;fill-rule:nonzero;"/>
                </g>
                <g transform="matrix(1,0,0,1,453.127,322.407)">
                    <path d="M0,4.393L5.875,4.393C6.295,4.393 6.622,4.067 6.622,3.668L6.622,0.725C6.622,0.326 6.295,-0.011 5.875,-0.011L0,-0.011C-0.41,-0.011 -0.736,0.326 -0.736,0.725L-0.736,3.668C-0.736,4.067 -0.41,4.393 0,4.393M5.875,5.875L0,5.875C-1.219,5.875 -2.207,4.876 -2.207,3.668L-2.207,0.725C-2.207,-0.495 -1.219,-1.482 0,-1.482L5.875,-1.482C7.105,-1.482 8.083,-0.495 8.083,0.725L8.083,3.668C8.083,4.876 7.105,5.875 5.875,5.875" style="fill:white;fill-rule:nonzero;"/>
                </g>
                <g transform="matrix(1,0,0,1,475.574,326.074)">
                    <path d="M0,-2.943C0,-3.342 -0.336,-3.679 -0.736,-3.679L-7.357,-3.679L-7.357,-1.472L-0.736,-1.472C-0.336,-1.472 0,-1.798 0,-2.207L0,-2.943ZM-0.105,-0.105L1.43,2.207L-0.336,2.207L-1.808,0L-7.357,0L-7.357,2.207L-8.829,2.207L-8.829,-5.15L-0.736,-5.15C0.483,-5.15 1.461,-4.163 1.461,-2.943L1.461,-2.207C1.461,-1.209 0.809,-0.368 -0.105,-0.105" style="fill:white;fill-rule:nonzero;"/>
                </g>
                <g transform="matrix(1,0,0,1,491.399,326.074)">
                    <path d="M0,-2.943C0,-3.342 -0.336,-3.679 -0.736,-3.679L-7.357,-3.679L-7.357,-1.472L-0.736,-1.472C-0.336,-1.472 0,-1.798 0,-2.207L0,-2.943ZM1.471,-2.943L1.471,-2.207C1.471,-0.988 0.473,0 -0.736,0L-7.357,0L-7.357,2.207L-8.829,2.207L-8.829,-5.15L-0.736,-5.15C0.473,-5.15 1.471,-4.163 1.471,-2.943" style="fill:white;fill-rule:nonzero;"/>
                </g>
                <g transform="matrix(1,0,0,1,500.614,322.407)">
                    <path d="M0,4.393L5.875,4.393C6.295,4.393 6.622,4.067 6.622,3.668L6.622,0.725C6.622,0.326 6.295,-0.011 5.875,-0.011L0,-0.011C-0.41,-0.011 -0.736,0.326 -0.736,0.725L-0.736,3.668C-0.736,4.067 -0.41,4.393 0,4.393M5.875,5.875L0,5.875C-1.219,5.875 -2.207,4.876 -2.207,3.668L-2.207,0.725C-2.207,-0.495 -1.219,-1.482 0,-1.482L5.875,-1.482C7.105,-1.482 8.083,-0.495 8.083,0.725L8.083,3.668C8.083,4.876 7.105,5.875 5.875,5.875" style="fill:white;fill-rule:nonzero;"/>
                </g>
                <g transform="matrix(1,0,0,1,523.061,326.074)">
                    <path d="M0,-2.943C0,-3.342 -0.336,-3.679 -0.736,-3.679L-7.357,-3.679L-7.357,-1.472L-0.736,-1.472C-0.336,-1.472 0,-1.798 0,-2.207L0,-2.943ZM-0.105,-0.105L1.43,2.207L-0.336,2.207L-1.808,0L-7.357,0L-7.357,2.207L-8.829,2.207L-8.829,-5.15L-0.736,-5.15C0.483,-5.15 1.461,-4.163 1.461,-2.943L1.461,-2.207C1.461,-1.209 0.809,-0.368 -0.105,-0.105" style="fill:white;fill-rule:nonzero;"/>
                </g>
                <g transform="matrix(1,0,0,1,547.988,320.924)">
                    <path d="M0,7.357L0,1.471L-4.414,1.471L-4.414,0L5.885,0L5.885,1.471L1.471,1.471L1.471,7.357L0,7.357Z" style="fill:white;fill-rule:nonzero;"/>
                </g>
                <g transform="matrix(1,0,0,1,0,53.929)">
                    <rect x="559.126" y="266.995" width="1.472" height="7.357" style="fill:white;"/>
                </g>
                <g transform="matrix(1,0,0,1,568.059,322.407)">
                    <path d="M0,4.393L5.875,4.393C6.295,4.393 6.622,4.067 6.622,3.668L6.622,0.725C6.622,0.326 6.295,-0.011 5.875,-0.011L0,-0.011C-0.41,-0.011 -0.736,0.326 -0.736,0.725L-0.736,3.668C-0.736,4.067 -0.41,4.393 0,4.393M5.875,5.875L0,5.875C-1.219,5.875 -2.207,4.876 -2.207,3.668L-2.207,0.725C-2.207,-0.495 -1.219,-1.482 0,-1.482L5.875,-1.482C7.105,-1.482 8.083,-0.495 8.083,0.725L8.083,3.668C8.083,4.876 7.105,5.875 5.875,5.875" style="fill:white;fill-rule:nonzero;"/>
                </g>
                <g transform="matrix(1,0,0,1,582.876,320.925)">
                    <path d="M0,7.356L-1.482,7.356L-1.482,0L0.246,0L7.357,5.675L7.357,0L8.828,0L8.828,7.356L7.1,7.356L0,1.681L0,7.356Z" style="fill:white;fill-rule:nonzero;"/>
                </g>
                <g transform="matrix(1,0,0,1,406.805,281.581)">
                    <path d="M0,31.702L-9.011,31.702L-46.035,2.109L-46.035,31.702L-53.763,31.702L-53.763,-6.66L-44.751,-6.66L-7.673,22.934L-7.673,-6.66L0,-6.66L0,31.702ZM-156.62,-14.586L-156.62,46.287L14.14,46.288L14.14,-14.586L-156.62,-14.586Z" style="fill:white;fill-rule:nonzero;"/>
                </g>
                <g transform="matrix(1,0,0,1,536.48,324.603)">
                    <path d="M0,0L-1.324,-2.207L-1.955,-2.207L-3.279,0L0,0ZM3.92,3.679L2.218,3.679L0.883,1.472L-4.162,1.472L-5.497,3.679L-7.199,3.679L-2.788,-3.678L-0.492,-3.679L3.92,3.679Z" style="fill:white;fill-rule:nonzero;"/>
                </g>
            </g>
        </g>
    </g>
</svg>
